<?xml version="1.0" encoding="utf-8" standalone="no"?>
<!DOCTYPE svg PUBLIC "-//W3C//DTD SVG 1.1//EN"
  "http://www.w3.org/Graphics/SVG/1.1/DTD/svg11.dtd">
<svg xmlns:xlink="http://www.w3.org/1999/xlink" width="2160pt" height="1800pt" viewBox="0 0 2160 1800" xmlns="http://www.w3.org/2000/svg" version="1.1">
 <metadata>
  <rdf:RDF xmlns:dc="http://purl.org/dc/elements/1.1/" xmlns:cc="http://creativecommons.org/ns#" xmlns:rdf="http://www.w3.org/1999/02/22-rdf-syntax-ns#">
   <cc:Work>
    <dc:type rdf:resource="http://purl.org/dc/dcmitype/StillImage"/>
    <dc:date>2022-07-11T16:34:36.906362</dc:date>
    <dc:format>image/svg+xml</dc:format>
    <dc:creator>
     <cc:Agent>
      <dc:title>Matplotlib v3.5.2, https://matplotlib.org/</dc:title>
     </cc:Agent>
    </dc:creator>
   </cc:Work>
  </rdf:RDF>
 </metadata>
 <defs>
  <style type="text/css">*{stroke-linejoin: round; stroke-linecap: butt}</style>
 </defs>
 <g id="figure_1">
  <g id="patch_1">
   <path d="M 0 1800 
L 2160 1800 
L 2160 0 
L 0 0 
z
" style="fill: #282a36"/>
  </g>
  <g id="axes_1">
   <g id="patch_2">
    <path d="M 399.625 1376.25 
L 2026.201531 1376.25 
L 2026.201531 436.25 
L 399.625 436.25 
z
" style="fill: #282a36"/>
   </g>
   <g id="matplotlib.axis_1">
    <g id="xtick_1">
     <g id="line2d_1">
      <path d="M 466.015879 1376.25 
L 466.015879 436.25 
" clip-path="url(#pdca1734f3e)" style="fill: none; stroke: #6272a4; stroke-width: 0.3; stroke-linecap: square"/>
     </g>
     <g id="line2d_2">
      <defs>
       <path id="mc8a353d7b8" d="M 0 0 
L 0 3.5 
" style="stroke: #6272a4; stroke-width: 0.4"/>
      </defs>
      <g>
       <use xlink:href="#mc8a353d7b8" x="466.015879" y="1376.25" style="fill: #6272a4; stroke: #6272a4; stroke-width: 0.4"/>
      </g>
     </g>
     <g id="text_1">
      <!-- Adana -->
      <g style="fill: #ffffff" transform="translate(447.051191 1392.368125)scale(0.12 -0.12)">
       <defs>
        <path id="DejaVuSans-41" d="M 2188 4044 
L 1331 1722 
L 3047 1722 
L 2188 4044 
z
M 1831 4666 
L 2547 4666 
L 4325 0 
L 3669 0 
L 3244 1197 
L 1141 1197 
L 716 0 
L 50 0 
L 1831 4666 
z
" transform="scale(0.015625)"/>
        <path id="DejaVuSans-64" d="M 2906 2969 
L 2906 4863 
L 3481 4863 
L 3481 0 
L 2906 0 
L 2906 525 
Q 2725 213 2448 61 
Q 2172 -91 1784 -91 
Q 1150 -91 751 415 
Q 353 922 353 1747 
Q 353 2572 751 3078 
Q 1150 3584 1784 3584 
Q 2172 3584 2448 3432 
Q 2725 3281 2906 2969 
z
M 947 1747 
Q 947 1113 1208 752 
Q 1469 391 1925 391 
Q 2381 391 2643 752 
Q 2906 1113 2906 1747 
Q 2906 2381 2643 2742 
Q 2381 3103 1925 3103 
Q 1469 3103 1208 2742 
Q 947 2381 947 1747 
z
" transform="scale(0.015625)"/>
        <path id="DejaVuSans-61" d="M 2194 1759 
Q 1497 1759 1228 1600 
Q 959 1441 959 1056 
Q 959 750 1161 570 
Q 1363 391 1709 391 
Q 2188 391 2477 730 
Q 2766 1069 2766 1631 
L 2766 1759 
L 2194 1759 
z
M 3341 1997 
L 3341 0 
L 2766 0 
L 2766 531 
Q 2569 213 2275 61 
Q 1981 -91 1556 -91 
Q 1019 -91 701 211 
Q 384 513 384 1019 
Q 384 1609 779 1909 
Q 1175 2209 1959 2209 
L 2766 2209 
L 2766 2266 
Q 2766 2663 2505 2880 
Q 2244 3097 1772 3097 
Q 1472 3097 1187 3025 
Q 903 2953 641 2809 
L 641 3341 
Q 956 3463 1253 3523 
Q 1550 3584 1831 3584 
Q 2591 3584 2966 3190 
Q 3341 2797 3341 1997 
z
" transform="scale(0.015625)"/>
        <path id="DejaVuSans-6e" d="M 3513 2113 
L 3513 0 
L 2938 0 
L 2938 2094 
Q 2938 2591 2744 2837 
Q 2550 3084 2163 3084 
Q 1697 3084 1428 2787 
Q 1159 2491 1159 1978 
L 1159 0 
L 581 0 
L 581 3500 
L 1159 3500 
L 1159 2956 
Q 1366 3272 1645 3428 
Q 1925 3584 2291 3584 
Q 2894 3584 3203 3211 
Q 3513 2838 3513 2113 
z
" transform="scale(0.015625)"/>
       </defs>
       <use xlink:href="#DejaVuSans-41"/>
       <use xlink:href="#DejaVuSans-64" x="66.658203"/>
       <use xlink:href="#DejaVuSans-61" x="130.134766"/>
       <use xlink:href="#DejaVuSans-6e" x="191.414062"/>
       <use xlink:href="#DejaVuSans-61" x="254.792969"/>
      </g>
     </g>
    </g>
    <g id="xtick_2">
     <g id="line2d_3">
      <path d="M 631.993076 1376.25 
L 631.993076 436.25 
" clip-path="url(#pdca1734f3e)" style="fill: none; stroke: #6272a4; stroke-width: 0.3; stroke-linecap: square"/>
     </g>
     <g id="line2d_4">
      <g>
       <use xlink:href="#mc8a353d7b8" x="631.993076" y="1376.25" style="fill: #6272a4; stroke: #6272a4; stroke-width: 0.4"/>
      </g>
     </g>
     <g id="text_2">
      <!-- Gaziantep -->
      <g style="fill: #ffffff" transform="translate(601.518701 1392.368125)scale(0.12 -0.12)">
       <defs>
        <path id="DejaVuSans-47" d="M 3809 666 
L 3809 1919 
L 2778 1919 
L 2778 2438 
L 4434 2438 
L 4434 434 
Q 4069 175 3628 42 
Q 3188 -91 2688 -91 
Q 1594 -91 976 548 
Q 359 1188 359 2328 
Q 359 3472 976 4111 
Q 1594 4750 2688 4750 
Q 3144 4750 3555 4637 
Q 3966 4525 4313 4306 
L 4313 3634 
Q 3963 3931 3569 4081 
Q 3175 4231 2741 4231 
Q 1884 4231 1454 3753 
Q 1025 3275 1025 2328 
Q 1025 1384 1454 906 
Q 1884 428 2741 428 
Q 3075 428 3337 486 
Q 3600 544 3809 666 
z
" transform="scale(0.015625)"/>
        <path id="DejaVuSans-7a" d="M 353 3500 
L 3084 3500 
L 3084 2975 
L 922 459 
L 3084 459 
L 3084 0 
L 275 0 
L 275 525 
L 2438 3041 
L 353 3041 
L 353 3500 
z
" transform="scale(0.015625)"/>
        <path id="DejaVuSans-69" d="M 603 3500 
L 1178 3500 
L 1178 0 
L 603 0 
L 603 3500 
z
M 603 4863 
L 1178 4863 
L 1178 4134 
L 603 4134 
L 603 4863 
z
" transform="scale(0.015625)"/>
        <path id="DejaVuSans-74" d="M 1172 4494 
L 1172 3500 
L 2356 3500 
L 2356 3053 
L 1172 3053 
L 1172 1153 
Q 1172 725 1289 603 
Q 1406 481 1766 481 
L 2356 481 
L 2356 0 
L 1766 0 
Q 1100 0 847 248 
Q 594 497 594 1153 
L 594 3053 
L 172 3053 
L 172 3500 
L 594 3500 
L 594 4494 
L 1172 4494 
z
" transform="scale(0.015625)"/>
        <path id="DejaVuSans-65" d="M 3597 1894 
L 3597 1613 
L 953 1613 
Q 991 1019 1311 708 
Q 1631 397 2203 397 
Q 2534 397 2845 478 
Q 3156 559 3463 722 
L 3463 178 
Q 3153 47 2828 -22 
Q 2503 -91 2169 -91 
Q 1331 -91 842 396 
Q 353 884 353 1716 
Q 353 2575 817 3079 
Q 1281 3584 2069 3584 
Q 2775 3584 3186 3129 
Q 3597 2675 3597 1894 
z
M 3022 2063 
Q 3016 2534 2758 2815 
Q 2500 3097 2075 3097 
Q 1594 3097 1305 2825 
Q 1016 2553 972 2059 
L 3022 2063 
z
" transform="scale(0.015625)"/>
        <path id="DejaVuSans-70" d="M 1159 525 
L 1159 -1331 
L 581 -1331 
L 581 3500 
L 1159 3500 
L 1159 2969 
Q 1341 3281 1617 3432 
Q 1894 3584 2278 3584 
Q 2916 3584 3314 3078 
Q 3713 2572 3713 1747 
Q 3713 922 3314 415 
Q 2916 -91 2278 -91 
Q 1894 -91 1617 61 
Q 1341 213 1159 525 
z
M 3116 1747 
Q 3116 2381 2855 2742 
Q 2594 3103 2138 3103 
Q 1681 3103 1420 2742 
Q 1159 2381 1159 1747 
Q 1159 1113 1420 752 
Q 1681 391 2138 391 
Q 2594 391 2855 752 
Q 3116 1113 3116 1747 
z
" transform="scale(0.015625)"/>
       </defs>
       <use xlink:href="#DejaVuSans-47"/>
       <use xlink:href="#DejaVuSans-61" x="77.490234"/>
       <use xlink:href="#DejaVuSans-7a" x="138.769531"/>
       <use xlink:href="#DejaVuSans-69" x="191.259766"/>
       <use xlink:href="#DejaVuSans-61" x="219.042969"/>
       <use xlink:href="#DejaVuSans-6e" x="280.322266"/>
       <use xlink:href="#DejaVuSans-74" x="343.701172"/>
       <use xlink:href="#DejaVuSans-65" x="382.910156"/>
       <use xlink:href="#DejaVuSans-70" x="444.433594"/>
      </g>
     </g>
    </g>
    <g id="xtick_3">
     <g id="line2d_5">
      <path d="M 797.970273 1376.25 
L 797.970273 436.25 
" clip-path="url(#pdca1734f3e)" style="fill: none; stroke: #6272a4; stroke-width: 0.3; stroke-linecap: square"/>
     </g>
     <g id="line2d_6">
      <g>
       <use xlink:href="#mc8a353d7b8" x="797.970273" y="1376.25" style="fill: #6272a4; stroke: #6272a4; stroke-width: 0.4"/>
      </g>
     </g>
     <g id="text_3">
      <!-- Dahuk -->
      <g style="fill: #ffffff" transform="translate(778.594023 1392.368125)scale(0.12 -0.12)">
       <defs>
        <path id="DejaVuSans-44" d="M 1259 4147 
L 1259 519 
L 2022 519 
Q 2988 519 3436 956 
Q 3884 1394 3884 2338 
Q 3884 3275 3436 3711 
Q 2988 4147 2022 4147 
L 1259 4147 
z
M 628 4666 
L 1925 4666 
Q 3281 4666 3915 4102 
Q 4550 3538 4550 2338 
Q 4550 1131 3912 565 
Q 3275 0 1925 0 
L 628 0 
L 628 4666 
z
" transform="scale(0.015625)"/>
        <path id="DejaVuSans-68" d="M 3513 2113 
L 3513 0 
L 2938 0 
L 2938 2094 
Q 2938 2591 2744 2837 
Q 2550 3084 2163 3084 
Q 1697 3084 1428 2787 
Q 1159 2491 1159 1978 
L 1159 0 
L 581 0 
L 581 4863 
L 1159 4863 
L 1159 2956 
Q 1366 3272 1645 3428 
Q 1925 3584 2291 3584 
Q 2894 3584 3203 3211 
Q 3513 2838 3513 2113 
z
" transform="scale(0.015625)"/>
        <path id="DejaVuSans-75" d="M 544 1381 
L 544 3500 
L 1119 3500 
L 1119 1403 
Q 1119 906 1312 657 
Q 1506 409 1894 409 
Q 2359 409 2629 706 
Q 2900 1003 2900 1516 
L 2900 3500 
L 3475 3500 
L 3475 0 
L 2900 0 
L 2900 538 
Q 2691 219 2414 64 
Q 2138 -91 1772 -91 
Q 1169 -91 856 284 
Q 544 659 544 1381 
z
M 1991 3584 
L 1991 3584 
z
" transform="scale(0.015625)"/>
        <path id="DejaVuSans-6b" d="M 581 4863 
L 1159 4863 
L 1159 1991 
L 2875 3500 
L 3609 3500 
L 1753 1863 
L 3688 0 
L 2938 0 
L 1159 1709 
L 1159 0 
L 581 0 
L 581 4863 
z
" transform="scale(0.015625)"/>
       </defs>
       <use xlink:href="#DejaVuSans-44"/>
       <use xlink:href="#DejaVuSans-61" x="77.001953"/>
       <use xlink:href="#DejaVuSans-68" x="138.28125"/>
       <use xlink:href="#DejaVuSans-75" x="201.660156"/>
       <use xlink:href="#DejaVuSans-6b" x="265.039062"/>
      </g>
     </g>
    </g>
    <g id="xtick_4">
     <g id="line2d_7">
      <path d="M 963.94747 1376.25 
L 963.94747 436.25 
" clip-path="url(#pdca1734f3e)" style="fill: none; stroke: #6272a4; stroke-width: 0.3; stroke-linecap: square"/>
     </g>
     <g id="line2d_8">
      <g>
       <use xlink:href="#mc8a353d7b8" x="963.94747" y="1376.25" style="fill: #6272a4; stroke: #6272a4; stroke-width: 0.4"/>
      </g>
     </g>
     <g id="text_4">
      <!-- Erbil -->
      <g style="fill: #ffffff" transform="translate(950.546845 1392.368125)scale(0.12 -0.12)">
       <defs>
        <path id="DejaVuSans-45" d="M 628 4666 
L 3578 4666 
L 3578 4134 
L 1259 4134 
L 1259 2753 
L 3481 2753 
L 3481 2222 
L 1259 2222 
L 1259 531 
L 3634 531 
L 3634 0 
L 628 0 
L 628 4666 
z
" transform="scale(0.015625)"/>
        <path id="DejaVuSans-72" d="M 2631 2963 
Q 2534 3019 2420 3045 
Q 2306 3072 2169 3072 
Q 1681 3072 1420 2755 
Q 1159 2438 1159 1844 
L 1159 0 
L 581 0 
L 581 3500 
L 1159 3500 
L 1159 2956 
Q 1341 3275 1631 3429 
Q 1922 3584 2338 3584 
Q 2397 3584 2469 3576 
Q 2541 3569 2628 3553 
L 2631 2963 
z
" transform="scale(0.015625)"/>
        <path id="DejaVuSans-62" d="M 3116 1747 
Q 3116 2381 2855 2742 
Q 2594 3103 2138 3103 
Q 1681 3103 1420 2742 
Q 1159 2381 1159 1747 
Q 1159 1113 1420 752 
Q 1681 391 2138 391 
Q 2594 391 2855 752 
Q 3116 1113 3116 1747 
z
M 1159 2969 
Q 1341 3281 1617 3432 
Q 1894 3584 2278 3584 
Q 2916 3584 3314 3078 
Q 3713 2572 3713 1747 
Q 3713 922 3314 415 
Q 2916 -91 2278 -91 
Q 1894 -91 1617 61 
Q 1341 213 1159 525 
L 1159 0 
L 581 0 
L 581 4863 
L 1159 4863 
L 1159 2969 
z
" transform="scale(0.015625)"/>
        <path id="DejaVuSans-6c" d="M 603 4863 
L 1178 4863 
L 1178 0 
L 603 0 
L 603 4863 
z
" transform="scale(0.015625)"/>
       </defs>
       <use xlink:href="#DejaVuSans-45"/>
       <use xlink:href="#DejaVuSans-72" x="63.183594"/>
       <use xlink:href="#DejaVuSans-62" x="104.296875"/>
       <use xlink:href="#DejaVuSans-69" x="167.773438"/>
       <use xlink:href="#DejaVuSans-6c" x="195.556641"/>
      </g>
     </g>
    </g>
    <g id="xtick_5">
     <g id="line2d_9">
      <path d="M 1129.924667 1376.25 
L 1129.924667 436.25 
" clip-path="url(#pdca1734f3e)" style="fill: none; stroke: #6272a4; stroke-width: 0.3; stroke-linecap: square"/>
     </g>
     <g id="line2d_10">
      <g>
       <use xlink:href="#mc8a353d7b8" x="1129.924667" y="1376.25" style="fill: #6272a4; stroke: #6272a4; stroke-width: 0.4"/>
      </g>
     </g>
     <g id="text_5">
      <!-- Kermanshah -->
      <g style="fill: #ffffff" transform="translate(1092.505292 1392.368125)scale(0.12 -0.12)">
       <defs>
        <path id="DejaVuSans-4b" d="M 628 4666 
L 1259 4666 
L 1259 2694 
L 3353 4666 
L 4166 4666 
L 1850 2491 
L 4331 0 
L 3500 0 
L 1259 2247 
L 1259 0 
L 628 0 
L 628 4666 
z
" transform="scale(0.015625)"/>
        <path id="DejaVuSans-6d" d="M 3328 2828 
Q 3544 3216 3844 3400 
Q 4144 3584 4550 3584 
Q 5097 3584 5394 3201 
Q 5691 2819 5691 2113 
L 5691 0 
L 5113 0 
L 5113 2094 
Q 5113 2597 4934 2840 
Q 4756 3084 4391 3084 
Q 3944 3084 3684 2787 
Q 3425 2491 3425 1978 
L 3425 0 
L 2847 0 
L 2847 2094 
Q 2847 2600 2669 2842 
Q 2491 3084 2119 3084 
Q 1678 3084 1418 2786 
Q 1159 2488 1159 1978 
L 1159 0 
L 581 0 
L 581 3500 
L 1159 3500 
L 1159 2956 
Q 1356 3278 1631 3431 
Q 1906 3584 2284 3584 
Q 2666 3584 2933 3390 
Q 3200 3197 3328 2828 
z
" transform="scale(0.015625)"/>
        <path id="DejaVuSans-73" d="M 2834 3397 
L 2834 2853 
Q 2591 2978 2328 3040 
Q 2066 3103 1784 3103 
Q 1356 3103 1142 2972 
Q 928 2841 928 2578 
Q 928 2378 1081 2264 
Q 1234 2150 1697 2047 
L 1894 2003 
Q 2506 1872 2764 1633 
Q 3022 1394 3022 966 
Q 3022 478 2636 193 
Q 2250 -91 1575 -91 
Q 1294 -91 989 -36 
Q 684 19 347 128 
L 347 722 
Q 666 556 975 473 
Q 1284 391 1588 391 
Q 1994 391 2212 530 
Q 2431 669 2431 922 
Q 2431 1156 2273 1281 
Q 2116 1406 1581 1522 
L 1381 1569 
Q 847 1681 609 1914 
Q 372 2147 372 2553 
Q 372 3047 722 3315 
Q 1072 3584 1716 3584 
Q 2034 3584 2315 3537 
Q 2597 3491 2834 3397 
z
" transform="scale(0.015625)"/>
       </defs>
       <use xlink:href="#DejaVuSans-4b"/>
       <use xlink:href="#DejaVuSans-65" x="60.576172"/>
       <use xlink:href="#DejaVuSans-72" x="122.099609"/>
       <use xlink:href="#DejaVuSans-6d" x="161.462891"/>
       <use xlink:href="#DejaVuSans-61" x="258.875"/>
       <use xlink:href="#DejaVuSans-6e" x="320.154297"/>
       <use xlink:href="#DejaVuSans-73" x="383.533203"/>
       <use xlink:href="#DejaVuSans-68" x="435.632812"/>
       <use xlink:href="#DejaVuSans-61" x="499.011719"/>
       <use xlink:href="#DejaVuSans-68" x="560.291016"/>
      </g>
     </g>
    </g>
    <g id="xtick_6">
     <g id="line2d_11">
      <path d="M 1295.901864 1376.25 
L 1295.901864 436.25 
" clip-path="url(#pdca1734f3e)" style="fill: none; stroke: #6272a4; stroke-width: 0.3; stroke-linecap: square"/>
     </g>
     <g id="line2d_12">
      <g>
       <use xlink:href="#mc8a353d7b8" x="1295.901864" y="1376.25" style="fill: #6272a4; stroke: #6272a4; stroke-width: 0.4"/>
      </g>
     </g>
     <g id="text_6">
      <!-- As Sulaymaniyah -->
      <g style="fill: #ffffff" transform="translate(1244.237176 1392.368125)scale(0.12 -0.12)">
       <defs>
        <path id="DejaVuSans-20" transform="scale(0.015625)"/>
        <path id="DejaVuSans-53" d="M 3425 4513 
L 3425 3897 
Q 3066 4069 2747 4153 
Q 2428 4238 2131 4238 
Q 1616 4238 1336 4038 
Q 1056 3838 1056 3469 
Q 1056 3159 1242 3001 
Q 1428 2844 1947 2747 
L 2328 2669 
Q 3034 2534 3370 2195 
Q 3706 1856 3706 1288 
Q 3706 609 3251 259 
Q 2797 -91 1919 -91 
Q 1588 -91 1214 -16 
Q 841 59 441 206 
L 441 856 
Q 825 641 1194 531 
Q 1563 422 1919 422 
Q 2459 422 2753 634 
Q 3047 847 3047 1241 
Q 3047 1584 2836 1778 
Q 2625 1972 2144 2069 
L 1759 2144 
Q 1053 2284 737 2584 
Q 422 2884 422 3419 
Q 422 4038 858 4394 
Q 1294 4750 2059 4750 
Q 2388 4750 2728 4690 
Q 3069 4631 3425 4513 
z
" transform="scale(0.015625)"/>
        <path id="DejaVuSans-79" d="M 2059 -325 
Q 1816 -950 1584 -1140 
Q 1353 -1331 966 -1331 
L 506 -1331 
L 506 -850 
L 844 -850 
Q 1081 -850 1212 -737 
Q 1344 -625 1503 -206 
L 1606 56 
L 191 3500 
L 800 3500 
L 1894 763 
L 2988 3500 
L 3597 3500 
L 2059 -325 
z
" transform="scale(0.015625)"/>
       </defs>
       <use xlink:href="#DejaVuSans-41"/>
       <use xlink:href="#DejaVuSans-73" x="68.408203"/>
       <use xlink:href="#DejaVuSans-20" x="120.507812"/>
       <use xlink:href="#DejaVuSans-53" x="152.294922"/>
       <use xlink:href="#DejaVuSans-75" x="215.771484"/>
       <use xlink:href="#DejaVuSans-6c" x="279.150391"/>
       <use xlink:href="#DejaVuSans-61" x="306.933594"/>
       <use xlink:href="#DejaVuSans-79" x="368.212891"/>
       <use xlink:href="#DejaVuSans-6d" x="427.392578"/>
       <use xlink:href="#DejaVuSans-61" x="524.804688"/>
       <use xlink:href="#DejaVuSans-6e" x="586.083984"/>
       <use xlink:href="#DejaVuSans-69" x="649.462891"/>
       <use xlink:href="#DejaVuSans-79" x="677.246094"/>
       <use xlink:href="#DejaVuSans-61" x="736.425781"/>
       <use xlink:href="#DejaVuSans-68" x="797.705078"/>
      </g>
     </g>
    </g>
    <g id="xtick_7">
     <g id="line2d_13">
      <path d="M 1461.879061 1376.25 
L 1461.879061 436.25 
" clip-path="url(#pdca1734f3e)" style="fill: none; stroke: #6272a4; stroke-width: 0.3; stroke-linecap: square"/>
     </g>
     <g id="line2d_14">
      <g>
       <use xlink:href="#mc8a353d7b8" x="1461.879061" y="1376.25" style="fill: #6272a4; stroke: #6272a4; stroke-width: 0.4"/>
      </g>
     </g>
     <g id="text_7">
      <!-- Diyarbakir -->
      <g style="fill: #ffffff" transform="translate(1430.803748 1392.368125)scale(0.12 -0.12)">
       <use xlink:href="#DejaVuSans-44"/>
       <use xlink:href="#DejaVuSans-69" x="77.001953"/>
       <use xlink:href="#DejaVuSans-79" x="104.785156"/>
       <use xlink:href="#DejaVuSans-61" x="163.964844"/>
       <use xlink:href="#DejaVuSans-72" x="225.244141"/>
       <use xlink:href="#DejaVuSans-62" x="266.357422"/>
       <use xlink:href="#DejaVuSans-61" x="329.833984"/>
       <use xlink:href="#DejaVuSans-6b" x="391.113281"/>
       <use xlink:href="#DejaVuSans-69" x="449.023438"/>
       <use xlink:href="#DejaVuSans-72" x="476.806641"/>
      </g>
     </g>
    </g>
    <g id="xtick_8">
     <g id="line2d_15">
      <path d="M 1627.856258 1376.25 
L 1627.856258 436.25 
" clip-path="url(#pdca1734f3e)" style="fill: none; stroke: #6272a4; stroke-width: 0.3; stroke-linecap: square"/>
     </g>
     <g id="line2d_16">
      <g>
       <use xlink:href="#mc8a353d7b8" x="1627.856258" y="1376.25" style="fill: #6272a4; stroke: #6272a4; stroke-width: 0.4"/>
      </g>
     </g>
     <g id="text_8">
      <!-- Kirkuk -->
      <g style="fill: #ffffff" transform="translate(1609.224383 1392.368125)scale(0.12 -0.12)">
       <use xlink:href="#DejaVuSans-4b"/>
       <use xlink:href="#DejaVuSans-69" x="65.576172"/>
       <use xlink:href="#DejaVuSans-72" x="93.359375"/>
       <use xlink:href="#DejaVuSans-6b" x="134.472656"/>
       <use xlink:href="#DejaVuSans-75" x="189.257812"/>
       <use xlink:href="#DejaVuSans-6b" x="252.636719"/>
      </g>
     </g>
    </g>
    <g id="xtick_9">
     <g id="line2d_17">
      <path d="M 1793.833455 1376.25 
L 1793.833455 436.25 
" clip-path="url(#pdca1734f3e)" style="fill: none; stroke: #6272a4; stroke-width: 0.3; stroke-linecap: square"/>
     </g>
     <g id="line2d_18">
      <g>
       <use xlink:href="#mc8a353d7b8" x="1793.833455" y="1376.25" style="fill: #6272a4; stroke: #6272a4; stroke-width: 0.4"/>
      </g>
     </g>
     <g id="text_9">
      <!-- Kayseri -->
      <g style="fill: #ffffff" transform="translate(1771.824705 1392.368125)scale(0.12 -0.12)">
       <use xlink:href="#DejaVuSans-4b"/>
       <use xlink:href="#DejaVuSans-61" x="63.826172"/>
       <use xlink:href="#DejaVuSans-79" x="125.105469"/>
       <use xlink:href="#DejaVuSans-73" x="184.285156"/>
       <use xlink:href="#DejaVuSans-65" x="236.384766"/>
       <use xlink:href="#DejaVuSans-72" x="297.908203"/>
       <use xlink:href="#DejaVuSans-69" x="339.021484"/>
      </g>
     </g>
    </g>
    <g id="xtick_10">
     <g id="line2d_19">
      <path d="M 1959.810652 1376.25 
L 1959.810652 436.25 
" clip-path="url(#pdca1734f3e)" style="fill: none; stroke: #6272a4; stroke-width: 0.3; stroke-linecap: square"/>
     </g>
     <g id="line2d_20">
      <g>
       <use xlink:href="#mc8a353d7b8" x="1959.810652" y="1376.25" style="fill: #6272a4; stroke: #6272a4; stroke-width: 0.4"/>
      </g>
     </g>
     <g id="text_10">
      <!-- Orumiyeh -->
      <g style="fill: #ffffff" transform="translate(1930.261589 1392.368125)scale(0.12 -0.12)">
       <defs>
        <path id="DejaVuSans-4f" d="M 2522 4238 
Q 1834 4238 1429 3725 
Q 1025 3213 1025 2328 
Q 1025 1447 1429 934 
Q 1834 422 2522 422 
Q 3209 422 3611 934 
Q 4013 1447 4013 2328 
Q 4013 3213 3611 3725 
Q 3209 4238 2522 4238 
z
M 2522 4750 
Q 3503 4750 4090 4092 
Q 4678 3434 4678 2328 
Q 4678 1225 4090 567 
Q 3503 -91 2522 -91 
Q 1538 -91 948 565 
Q 359 1222 359 2328 
Q 359 3434 948 4092 
Q 1538 4750 2522 4750 
z
" transform="scale(0.015625)"/>
       </defs>
       <use xlink:href="#DejaVuSans-4f"/>
       <use xlink:href="#DejaVuSans-72" x="78.710938"/>
       <use xlink:href="#DejaVuSans-75" x="119.824219"/>
       <use xlink:href="#DejaVuSans-6d" x="183.203125"/>
       <use xlink:href="#DejaVuSans-69" x="280.615234"/>
       <use xlink:href="#DejaVuSans-79" x="308.398438"/>
       <use xlink:href="#DejaVuSans-65" x="367.578125"/>
       <use xlink:href="#DejaVuSans-68" x="429.101562"/>
      </g>
     </g>
    </g>
    <g id="text_11">
     <!-- Kurdish Cities -->
     <g style="fill: #faffa2" transform="translate(1134.442953 1428.060625)scale(0.2 -0.2)">
      <defs>
       <path id="DejaVuSans-Bold-4b" d="M 588 4666 
L 1791 4666 
L 1791 2963 
L 3525 4666 
L 4922 4666 
L 2675 2456 
L 5153 0 
L 3647 0 
L 1791 1838 
L 1791 0 
L 588 0 
L 588 4666 
z
" transform="scale(0.015625)"/>
       <path id="DejaVuSans-Bold-75" d="M 500 1363 
L 500 3500 
L 1625 3500 
L 1625 3150 
Q 1625 2866 1622 2436 
Q 1619 2006 1619 1863 
Q 1619 1441 1641 1255 
Q 1663 1069 1716 984 
Q 1784 875 1895 815 
Q 2006 756 2150 756 
Q 2500 756 2700 1025 
Q 2900 1294 2900 1772 
L 2900 3500 
L 4019 3500 
L 4019 0 
L 2900 0 
L 2900 506 
Q 2647 200 2364 54 
Q 2081 -91 1741 -91 
Q 1134 -91 817 281 
Q 500 653 500 1363 
z
" transform="scale(0.015625)"/>
       <path id="DejaVuSans-Bold-72" d="M 3138 2547 
Q 2991 2616 2845 2648 
Q 2700 2681 2553 2681 
Q 2122 2681 1889 2404 
Q 1656 2128 1656 1613 
L 1656 0 
L 538 0 
L 538 3500 
L 1656 3500 
L 1656 2925 
Q 1872 3269 2151 3426 
Q 2431 3584 2822 3584 
Q 2878 3584 2943 3579 
Q 3009 3575 3134 3559 
L 3138 2547 
z
" transform="scale(0.015625)"/>
       <path id="DejaVuSans-Bold-64" d="M 2919 2988 
L 2919 4863 
L 4044 4863 
L 4044 0 
L 2919 0 
L 2919 506 
Q 2688 197 2409 53 
Q 2131 -91 1766 -91 
Q 1119 -91 703 423 
Q 288 938 288 1747 
Q 288 2556 703 3070 
Q 1119 3584 1766 3584 
Q 2128 3584 2408 3439 
Q 2688 3294 2919 2988 
z
M 2181 722 
Q 2541 722 2730 984 
Q 2919 1247 2919 1747 
Q 2919 2247 2730 2509 
Q 2541 2772 2181 2772 
Q 1825 2772 1636 2509 
Q 1447 2247 1447 1747 
Q 1447 1247 1636 984 
Q 1825 722 2181 722 
z
" transform="scale(0.015625)"/>
       <path id="DejaVuSans-Bold-69" d="M 538 3500 
L 1656 3500 
L 1656 0 
L 538 0 
L 538 3500 
z
M 538 4863 
L 1656 4863 
L 1656 3950 
L 538 3950 
L 538 4863 
z
" transform="scale(0.015625)"/>
       <path id="DejaVuSans-Bold-73" d="M 3272 3391 
L 3272 2541 
Q 2913 2691 2578 2766 
Q 2244 2841 1947 2841 
Q 1628 2841 1473 2761 
Q 1319 2681 1319 2516 
Q 1319 2381 1436 2309 
Q 1553 2238 1856 2203 
L 2053 2175 
Q 2913 2066 3209 1816 
Q 3506 1566 3506 1031 
Q 3506 472 3093 190 
Q 2681 -91 1863 -91 
Q 1516 -91 1145 -36 
Q 775 19 384 128 
L 384 978 
Q 719 816 1070 734 
Q 1422 653 1784 653 
Q 2113 653 2278 743 
Q 2444 834 2444 1013 
Q 2444 1163 2330 1236 
Q 2216 1309 1875 1350 
L 1678 1375 
Q 931 1469 631 1722 
Q 331 1975 331 2491 
Q 331 3047 712 3315 
Q 1094 3584 1881 3584 
Q 2191 3584 2531 3537 
Q 2872 3491 3272 3391 
z
" transform="scale(0.015625)"/>
       <path id="DejaVuSans-Bold-68" d="M 4056 2131 
L 4056 0 
L 2931 0 
L 2931 347 
L 2931 1625 
Q 2931 2084 2911 2256 
Q 2891 2428 2841 2509 
Q 2775 2619 2662 2680 
Q 2550 2741 2406 2741 
Q 2056 2741 1856 2470 
Q 1656 2200 1656 1722 
L 1656 0 
L 538 0 
L 538 4863 
L 1656 4863 
L 1656 2988 
Q 1909 3294 2193 3439 
Q 2478 3584 2822 3584 
Q 3428 3584 3742 3212 
Q 4056 2841 4056 2131 
z
" transform="scale(0.015625)"/>
       <path id="DejaVuSans-Bold-20" transform="scale(0.015625)"/>
       <path id="DejaVuSans-Bold-43" d="M 4288 256 
Q 3956 84 3597 -3 
Q 3238 -91 2847 -91 
Q 1681 -91 1000 561 
Q 319 1213 319 2328 
Q 319 3447 1000 4098 
Q 1681 4750 2847 4750 
Q 3238 4750 3597 4662 
Q 3956 4575 4288 4403 
L 4288 3438 
Q 3953 3666 3628 3772 
Q 3303 3878 2944 3878 
Q 2300 3878 1931 3465 
Q 1563 3053 1563 2328 
Q 1563 1606 1931 1193 
Q 2300 781 2944 781 
Q 3303 781 3628 887 
Q 3953 994 4288 1222 
L 4288 256 
z
" transform="scale(0.015625)"/>
       <path id="DejaVuSans-Bold-74" d="M 1759 4494 
L 1759 3500 
L 2913 3500 
L 2913 2700 
L 1759 2700 
L 1759 1216 
Q 1759 972 1856 886 
Q 1953 800 2241 800 
L 2816 800 
L 2816 0 
L 1856 0 
Q 1194 0 917 276 
Q 641 553 641 1216 
L 641 2700 
L 84 2700 
L 84 3500 
L 641 3500 
L 641 4494 
L 1759 4494 
z
" transform="scale(0.015625)"/>
       <path id="DejaVuSans-Bold-65" d="M 4031 1759 
L 4031 1441 
L 1416 1441 
Q 1456 1047 1700 850 
Q 1944 653 2381 653 
Q 2734 653 3104 758 
Q 3475 863 3866 1075 
L 3866 213 
Q 3469 63 3072 -14 
Q 2675 -91 2278 -91 
Q 1328 -91 801 392 
Q 275 875 275 1747 
Q 275 2603 792 3093 
Q 1309 3584 2216 3584 
Q 3041 3584 3536 3087 
Q 4031 2591 4031 1759 
z
M 2881 2131 
Q 2881 2450 2695 2645 
Q 2509 2841 2209 2841 
Q 1884 2841 1681 2658 
Q 1478 2475 1428 2131 
L 2881 2131 
z
" transform="scale(0.015625)"/>
      </defs>
      <use xlink:href="#DejaVuSans-Bold-4b"/>
      <use xlink:href="#DejaVuSans-Bold-75" x="75.740234"/>
      <use xlink:href="#DejaVuSans-Bold-72" x="146.931641"/>
      <use xlink:href="#DejaVuSans-Bold-64" x="196.248047"/>
      <use xlink:href="#DejaVuSans-Bold-69" x="267.830078"/>
      <use xlink:href="#DejaVuSans-Bold-73" x="302.107422"/>
      <use xlink:href="#DejaVuSans-Bold-68" x="361.628906"/>
      <use xlink:href="#DejaVuSans-Bold-20" x="432.820312"/>
      <use xlink:href="#DejaVuSans-Bold-43" x="467.634766"/>
      <use xlink:href="#DejaVuSans-Bold-69" x="541.023438"/>
      <use xlink:href="#DejaVuSans-Bold-74" x="575.300781"/>
      <use xlink:href="#DejaVuSans-Bold-69" x="623.103516"/>
      <use xlink:href="#DejaVuSans-Bold-65" x="657.380859"/>
      <use xlink:href="#DejaVuSans-Bold-73" x="725.203125"/>
     </g>
    </g>
   </g>
   <g id="matplotlib.axis_2">
    <g id="ytick_1">
     <g id="line2d_21">
      <path d="M 399.625 1376.25 
L 2026.201531 1376.25 
" clip-path="url(#pdca1734f3e)" style="fill: none; stroke: #6272a4; stroke-width: 0.3; stroke-linecap: square"/>
     </g>
     <g id="line2d_22">
      <defs>
       <path id="m2bf5ebc2a2" d="M 0 0 
L -3.5 0 
" style="stroke: #6272a4; stroke-width: 0.3"/>
      </defs>
      <g>
       <use xlink:href="#m2bf5ebc2a2" x="399.625" y="1376.25" style="fill: #6272a4; stroke: #6272a4; stroke-width: 0.3"/>
      </g>
     </g>
     <g id="text_12">
      <!-- −25 -->
      <g style="fill: #ffffff" transform="translate(371.520313 1380.049219)scale(0.1 -0.1)">
       <defs>
        <path id="DejaVuSans-2212" d="M 678 2272 
L 4684 2272 
L 4684 1741 
L 678 1741 
L 678 2272 
z
" transform="scale(0.015625)"/>
        <path id="DejaVuSans-32" d="M 1228 531 
L 3431 531 
L 3431 0 
L 469 0 
L 469 531 
Q 828 903 1448 1529 
Q 2069 2156 2228 2338 
Q 2531 2678 2651 2914 
Q 2772 3150 2772 3378 
Q 2772 3750 2511 3984 
Q 2250 4219 1831 4219 
Q 1534 4219 1204 4116 
Q 875 4013 500 3803 
L 500 4441 
Q 881 4594 1212 4672 
Q 1544 4750 1819 4750 
Q 2544 4750 2975 4387 
Q 3406 4025 3406 3419 
Q 3406 3131 3298 2873 
Q 3191 2616 2906 2266 
Q 2828 2175 2409 1742 
Q 1991 1309 1228 531 
z
" transform="scale(0.015625)"/>
        <path id="DejaVuSans-35" d="M 691 4666 
L 3169 4666 
L 3169 4134 
L 1269 4134 
L 1269 2991 
Q 1406 3038 1543 3061 
Q 1681 3084 1819 3084 
Q 2600 3084 3056 2656 
Q 3513 2228 3513 1497 
Q 3513 744 3044 326 
Q 2575 -91 1722 -91 
Q 1428 -91 1123 -41 
Q 819 9 494 109 
L 494 744 
Q 775 591 1075 516 
Q 1375 441 1709 441 
Q 2250 441 2565 725 
Q 2881 1009 2881 1497 
Q 2881 1984 2565 2268 
Q 2250 2553 1709 2553 
Q 1456 2553 1204 2497 
Q 953 2441 691 2322 
L 691 4666 
z
" transform="scale(0.015625)"/>
       </defs>
       <use xlink:href="#DejaVuSans-2212"/>
       <use xlink:href="#DejaVuSans-32" x="83.789062"/>
       <use xlink:href="#DejaVuSans-35" x="147.412109"/>
      </g>
     </g>
    </g>
    <g id="ytick_2">
     <g id="line2d_23">
      <path d="M 399.625 1309.107143 
L 2026.201531 1309.107143 
" clip-path="url(#pdca1734f3e)" style="fill: none; stroke: #6272a4; stroke-width: 0.3; stroke-linecap: square"/>
     </g>
     <g id="line2d_24">
      <g>
       <use xlink:href="#m2bf5ebc2a2" x="399.625" y="1309.107143" style="fill: #6272a4; stroke: #6272a4; stroke-width: 0.3"/>
      </g>
     </g>
     <g id="text_13">
      <!-- −20 -->
      <g style="fill: #ffffff" transform="translate(371.520313 1312.906362)scale(0.1 -0.1)">
       <defs>
        <path id="DejaVuSans-30" d="M 2034 4250 
Q 1547 4250 1301 3770 
Q 1056 3291 1056 2328 
Q 1056 1369 1301 889 
Q 1547 409 2034 409 
Q 2525 409 2770 889 
Q 3016 1369 3016 2328 
Q 3016 3291 2770 3770 
Q 2525 4250 2034 4250 
z
M 2034 4750 
Q 2819 4750 3233 4129 
Q 3647 3509 3647 2328 
Q 3647 1150 3233 529 
Q 2819 -91 2034 -91 
Q 1250 -91 836 529 
Q 422 1150 422 2328 
Q 422 3509 836 4129 
Q 1250 4750 2034 4750 
z
" transform="scale(0.015625)"/>
       </defs>
       <use xlink:href="#DejaVuSans-2212"/>
       <use xlink:href="#DejaVuSans-32" x="83.789062"/>
       <use xlink:href="#DejaVuSans-30" x="147.412109"/>
      </g>
     </g>
    </g>
    <g id="ytick_3">
     <g id="line2d_25">
      <path d="M 399.625 1241.964286 
L 2026.201531 1241.964286 
" clip-path="url(#pdca1734f3e)" style="fill: none; stroke: #6272a4; stroke-width: 0.3; stroke-linecap: square"/>
     </g>
     <g id="line2d_26">
      <g>
       <use xlink:href="#m2bf5ebc2a2" x="399.625" y="1241.964286" style="fill: #6272a4; stroke: #6272a4; stroke-width: 0.3"/>
      </g>
     </g>
     <g id="text_14">
      <!-- −15 -->
      <g style="fill: #ffffff" transform="translate(371.520313 1245.763504)scale(0.1 -0.1)">
       <defs>
        <path id="DejaVuSans-31" d="M 794 531 
L 1825 531 
L 1825 4091 
L 703 3866 
L 703 4441 
L 1819 4666 
L 2450 4666 
L 2450 531 
L 3481 531 
L 3481 0 
L 794 0 
L 794 531 
z
" transform="scale(0.015625)"/>
       </defs>
       <use xlink:href="#DejaVuSans-2212"/>
       <use xlink:href="#DejaVuSans-31" x="83.789062"/>
       <use xlink:href="#DejaVuSans-35" x="147.412109"/>
      </g>
     </g>
    </g>
    <g id="ytick_4">
     <g id="line2d_27">
      <path d="M 399.625 1174.821429 
L 2026.201531 1174.821429 
" clip-path="url(#pdca1734f3e)" style="fill: none; stroke: #6272a4; stroke-width: 0.3; stroke-linecap: square"/>
     </g>
     <g id="line2d_28">
      <g>
       <use xlink:href="#m2bf5ebc2a2" x="399.625" y="1174.821429" style="fill: #6272a4; stroke: #6272a4; stroke-width: 0.3"/>
      </g>
     </g>
     <g id="text_15">
      <!-- −10 -->
      <g style="fill: #ffffff" transform="translate(371.520313 1178.620647)scale(0.1 -0.1)">
       <use xlink:href="#DejaVuSans-2212"/>
       <use xlink:href="#DejaVuSans-31" x="83.789062"/>
       <use xlink:href="#DejaVuSans-30" x="147.412109"/>
      </g>
     </g>
    </g>
    <g id="ytick_5">
     <g id="line2d_29">
      <path d="M 399.625 1107.678571 
L 2026.201531 1107.678571 
" clip-path="url(#pdca1734f3e)" style="fill: none; stroke: #6272a4; stroke-width: 0.3; stroke-linecap: square"/>
     </g>
     <g id="line2d_30">
      <g>
       <use xlink:href="#m2bf5ebc2a2" x="399.625" y="1107.678571" style="fill: #6272a4; stroke: #6272a4; stroke-width: 0.3"/>
      </g>
     </g>
     <g id="text_16">
      <!-- −5 -->
      <g style="fill: #ffffff" transform="translate(377.882813 1111.47779)scale(0.1 -0.1)">
       <use xlink:href="#DejaVuSans-2212"/>
       <use xlink:href="#DejaVuSans-35" x="83.789062"/>
      </g>
     </g>
    </g>
    <g id="ytick_6">
     <g id="line2d_31">
      <path d="M 399.625 1040.535714 
L 2026.201531 1040.535714 
" clip-path="url(#pdca1734f3e)" style="fill: none; stroke: #6272a4; stroke-width: 0.3; stroke-linecap: square"/>
     </g>
     <g id="line2d_32">
      <g>
       <use xlink:href="#m2bf5ebc2a2" x="399.625" y="1040.535714" style="fill: #6272a4; stroke: #6272a4; stroke-width: 0.3"/>
      </g>
     </g>
     <g id="text_17">
      <!-- 0 -->
      <g style="fill: #ffffff" transform="translate(386.2625 1044.334933)scale(0.1 -0.1)">
       <use xlink:href="#DejaVuSans-30"/>
      </g>
     </g>
    </g>
    <g id="ytick_7">
     <g id="line2d_33">
      <path d="M 399.625 973.392857 
L 2026.201531 973.392857 
" clip-path="url(#pdca1734f3e)" style="fill: none; stroke: #6272a4; stroke-width: 0.3; stroke-linecap: square"/>
     </g>
     <g id="line2d_34">
      <g>
       <use xlink:href="#m2bf5ebc2a2" x="399.625" y="973.392857" style="fill: #6272a4; stroke: #6272a4; stroke-width: 0.3"/>
      </g>
     </g>
     <g id="text_18">
      <!-- 5 -->
      <g style="fill: #ffffff" transform="translate(386.2625 977.192076)scale(0.1 -0.1)">
       <use xlink:href="#DejaVuSans-35"/>
      </g>
     </g>
    </g>
    <g id="ytick_8">
     <g id="line2d_35">
      <path d="M 399.625 906.25 
L 2026.201531 906.25 
" clip-path="url(#pdca1734f3e)" style="fill: none; stroke: #6272a4; stroke-width: 0.3; stroke-linecap: square"/>
     </g>
     <g id="line2d_36">
      <g>
       <use xlink:href="#m2bf5ebc2a2" x="399.625" y="906.25" style="fill: #6272a4; stroke: #6272a4; stroke-width: 0.3"/>
      </g>
     </g>
     <g id="text_19">
      <!-- 10 -->
      <g style="fill: #ffffff" transform="translate(379.9 910.049219)scale(0.1 -0.1)">
       <use xlink:href="#DejaVuSans-31"/>
       <use xlink:href="#DejaVuSans-30" x="63.623047"/>
      </g>
     </g>
    </g>
    <g id="ytick_9">
     <g id="line2d_37">
      <path d="M 399.625 839.107143 
L 2026.201531 839.107143 
" clip-path="url(#pdca1734f3e)" style="fill: none; stroke: #6272a4; stroke-width: 0.3; stroke-linecap: square"/>
     </g>
     <g id="line2d_38">
      <g>
       <use xlink:href="#m2bf5ebc2a2" x="399.625" y="839.107143" style="fill: #6272a4; stroke: #6272a4; stroke-width: 0.3"/>
      </g>
     </g>
     <g id="text_20">
      <!-- 15 -->
      <g style="fill: #ffffff" transform="translate(379.9 842.906362)scale(0.1 -0.1)">
       <use xlink:href="#DejaVuSans-31"/>
       <use xlink:href="#DejaVuSans-35" x="63.623047"/>
      </g>
     </g>
    </g>
    <g id="ytick_10">
     <g id="line2d_39">
      <path d="M 399.625 771.964286 
L 2026.201531 771.964286 
" clip-path="url(#pdca1734f3e)" style="fill: none; stroke: #6272a4; stroke-width: 0.3; stroke-linecap: square"/>
     </g>
     <g id="line2d_40">
      <g>
       <use xlink:href="#m2bf5ebc2a2" x="399.625" y="771.964286" style="fill: #6272a4; stroke: #6272a4; stroke-width: 0.3"/>
      </g>
     </g>
     <g id="text_21">
      <!-- 20 -->
      <g style="fill: #ffffff" transform="translate(379.9 775.763504)scale(0.1 -0.1)">
       <use xlink:href="#DejaVuSans-32"/>
       <use xlink:href="#DejaVuSans-30" x="63.623047"/>
      </g>
     </g>
    </g>
    <g id="ytick_11">
     <g id="line2d_41">
      <path d="M 399.625 704.821429 
L 2026.201531 704.821429 
" clip-path="url(#pdca1734f3e)" style="fill: none; stroke: #6272a4; stroke-width: 0.3; stroke-linecap: square"/>
     </g>
     <g id="line2d_42">
      <g>
       <use xlink:href="#m2bf5ebc2a2" x="399.625" y="704.821429" style="fill: #6272a4; stroke: #6272a4; stroke-width: 0.3"/>
      </g>
     </g>
     <g id="text_22">
      <!-- 25 -->
      <g style="fill: #ffffff" transform="translate(379.9 708.620647)scale(0.1 -0.1)">
       <use xlink:href="#DejaVuSans-32"/>
       <use xlink:href="#DejaVuSans-35" x="63.623047"/>
      </g>
     </g>
    </g>
    <g id="ytick_12">
     <g id="line2d_43">
      <path d="M 399.625 637.678571 
L 2026.201531 637.678571 
" clip-path="url(#pdca1734f3e)" style="fill: none; stroke: #6272a4; stroke-width: 0.3; stroke-linecap: square"/>
     </g>
     <g id="line2d_44">
      <g>
       <use xlink:href="#m2bf5ebc2a2" x="399.625" y="637.678571" style="fill: #6272a4; stroke: #6272a4; stroke-width: 0.3"/>
      </g>
     </g>
     <g id="text_23">
      <!-- 30 -->
      <g style="fill: #ffffff" transform="translate(379.9 641.47779)scale(0.1 -0.1)">
       <defs>
        <path id="DejaVuSans-33" d="M 2597 2516 
Q 3050 2419 3304 2112 
Q 3559 1806 3559 1356 
Q 3559 666 3084 287 
Q 2609 -91 1734 -91 
Q 1441 -91 1130 -33 
Q 819 25 488 141 
L 488 750 
Q 750 597 1062 519 
Q 1375 441 1716 441 
Q 2309 441 2620 675 
Q 2931 909 2931 1356 
Q 2931 1769 2642 2001 
Q 2353 2234 1838 2234 
L 1294 2234 
L 1294 2753 
L 1863 2753 
Q 2328 2753 2575 2939 
Q 2822 3125 2822 3475 
Q 2822 3834 2567 4026 
Q 2313 4219 1838 4219 
Q 1578 4219 1281 4162 
Q 984 4106 628 3988 
L 628 4550 
Q 988 4650 1302 4700 
Q 1616 4750 1894 4750 
Q 2613 4750 3031 4423 
Q 3450 4097 3450 3541 
Q 3450 3153 3228 2886 
Q 3006 2619 2597 2516 
z
" transform="scale(0.015625)"/>
       </defs>
       <use xlink:href="#DejaVuSans-33"/>
       <use xlink:href="#DejaVuSans-30" x="63.623047"/>
      </g>
     </g>
    </g>
    <g id="ytick_13">
     <g id="line2d_45">
      <path d="M 399.625 570.535714 
L 2026.201531 570.535714 
" clip-path="url(#pdca1734f3e)" style="fill: none; stroke: #6272a4; stroke-width: 0.3; stroke-linecap: square"/>
     </g>
     <g id="line2d_46">
      <g>
       <use xlink:href="#m2bf5ebc2a2" x="399.625" y="570.535714" style="fill: #6272a4; stroke: #6272a4; stroke-width: 0.3"/>
      </g>
     </g>
     <g id="text_24">
      <!-- 35 -->
      <g style="fill: #ffffff" transform="translate(379.9 574.334933)scale(0.1 -0.1)">
       <use xlink:href="#DejaVuSans-33"/>
       <use xlink:href="#DejaVuSans-35" x="63.623047"/>
      </g>
     </g>
    </g>
    <g id="ytick_14">
     <g id="line2d_47">
      <path d="M 399.625 503.392857 
L 2026.201531 503.392857 
" clip-path="url(#pdca1734f3e)" style="fill: none; stroke: #6272a4; stroke-width: 0.3; stroke-linecap: square"/>
     </g>
     <g id="line2d_48">
      <g>
       <use xlink:href="#m2bf5ebc2a2" x="399.625" y="503.392857" style="fill: #6272a4; stroke: #6272a4; stroke-width: 0.3"/>
      </g>
     </g>
     <g id="text_25">
      <!-- 40 -->
      <g style="fill: #ffffff" transform="translate(379.9 507.192076)scale(0.1 -0.1)">
       <defs>
        <path id="DejaVuSans-34" d="M 2419 4116 
L 825 1625 
L 2419 1625 
L 2419 4116 
z
M 2253 4666 
L 3047 4666 
L 3047 1625 
L 3713 1625 
L 3713 1100 
L 3047 1100 
L 3047 0 
L 2419 0 
L 2419 1100 
L 313 1100 
L 313 1709 
L 2253 4666 
z
" transform="scale(0.015625)"/>
       </defs>
       <use xlink:href="#DejaVuSans-34"/>
       <use xlink:href="#DejaVuSans-30" x="63.623047"/>
      </g>
     </g>
    </g>
    <g id="ytick_15">
     <g id="line2d_49">
      <path d="M 399.625 436.25 
L 2026.201531 436.25 
" clip-path="url(#pdca1734f3e)" style="fill: none; stroke: #6272a4; stroke-width: 0.3; stroke-linecap: square"/>
     </g>
     <g id="line2d_50">
      <g>
       <use xlink:href="#m2bf5ebc2a2" x="399.625" y="436.25" style="fill: #6272a4; stroke: #6272a4; stroke-width: 0.3"/>
      </g>
     </g>
     <g id="text_26">
      <!-- 45 -->
      <g style="fill: #ffffff" transform="translate(379.9 440.049219)scale(0.1 -0.1)">
       <use xlink:href="#DejaVuSans-34"/>
       <use xlink:href="#DejaVuSans-35" x="63.623047"/>
      </g>
     </g>
    </g>
    <g id="text_27">
     <!-- temperature($^\circ C$ ) -->
     <g style="fill: #faffa2" transform="translate(349.320313 1004.55)rotate(-90)scale(0.2 -0.2)">
      <defs>
       <path id="DejaVuSans-Bold-6d" d="M 3781 2919 
Q 3994 3244 4286 3414 
Q 4578 3584 4928 3584 
Q 5531 3584 5847 3212 
Q 6163 2841 6163 2131 
L 6163 0 
L 5038 0 
L 5038 1825 
Q 5041 1866 5042 1909 
Q 5044 1953 5044 2034 
Q 5044 2406 4934 2573 
Q 4825 2741 4581 2741 
Q 4263 2741 4089 2478 
Q 3916 2216 3909 1719 
L 3909 0 
L 2784 0 
L 2784 1825 
Q 2784 2406 2684 2573 
Q 2584 2741 2328 2741 
Q 2006 2741 1831 2477 
Q 1656 2213 1656 1722 
L 1656 0 
L 531 0 
L 531 3500 
L 1656 3500 
L 1656 2988 
Q 1863 3284 2130 3434 
Q 2397 3584 2719 3584 
Q 3081 3584 3359 3409 
Q 3638 3234 3781 2919 
z
" transform="scale(0.015625)"/>
       <path id="DejaVuSans-Bold-70" d="M 1656 506 
L 1656 -1331 
L 538 -1331 
L 538 3500 
L 1656 3500 
L 1656 2988 
Q 1888 3294 2169 3439 
Q 2450 3584 2816 3584 
Q 3463 3584 3878 3070 
Q 4294 2556 4294 1747 
Q 4294 938 3878 423 
Q 3463 -91 2816 -91 
Q 2450 -91 2169 54 
Q 1888 200 1656 506 
z
M 2400 2772 
Q 2041 2772 1848 2508 
Q 1656 2244 1656 1747 
Q 1656 1250 1848 986 
Q 2041 722 2400 722 
Q 2759 722 2948 984 
Q 3138 1247 3138 1747 
Q 3138 2247 2948 2509 
Q 2759 2772 2400 2772 
z
" transform="scale(0.015625)"/>
       <path id="DejaVuSans-Bold-61" d="M 2106 1575 
Q 1756 1575 1579 1456 
Q 1403 1338 1403 1106 
Q 1403 894 1545 773 
Q 1688 653 1941 653 
Q 2256 653 2472 879 
Q 2688 1106 2688 1447 
L 2688 1575 
L 2106 1575 
z
M 3816 1997 
L 3816 0 
L 2688 0 
L 2688 519 
Q 2463 200 2181 54 
Q 1900 -91 1497 -91 
Q 953 -91 614 226 
Q 275 544 275 1050 
Q 275 1666 698 1953 
Q 1122 2241 2028 2241 
L 2688 2241 
L 2688 2328 
Q 2688 2594 2478 2717 
Q 2269 2841 1825 2841 
Q 1466 2841 1156 2769 
Q 847 2697 581 2553 
L 581 3406 
Q 941 3494 1303 3539 
Q 1666 3584 2028 3584 
Q 2975 3584 3395 3211 
Q 3816 2838 3816 1997 
z
" transform="scale(0.015625)"/>
       <path id="DejaVuSans-Bold-28" d="M 2413 -844 
L 1484 -844 
Q 1006 -72 778 623 
Q 550 1319 550 2003 
Q 550 2688 779 3389 
Q 1009 4091 1484 4856 
L 2413 4856 
Q 2013 4116 1813 3408 
Q 1613 2700 1613 2009 
Q 1613 1319 1811 609 
Q 2009 -100 2413 -844 
z
" transform="scale(0.015625)"/>
       <path id="DejaVuSans-2218" d="M 2003 2603 
Q 1753 2603 1581 2429 
Q 1409 2256 1409 2006 
Q 1409 1759 1581 1589 
Q 1753 1419 2003 1419 
Q 2253 1419 2425 1589 
Q 2597 1759 2597 2006 
Q 2597 2253 2423 2428 
Q 2250 2603 2003 2603 
z
M 2003 3006 
Q 2203 3006 2387 2929 
Q 2572 2853 2706 2709 
Q 2850 2569 2922 2390 
Q 2994 2212 2994 2006 
Q 2994 1594 2705 1308 
Q 2416 1022 1997 1022 
Q 1575 1022 1294 1303 
Q 1013 1584 1013 2006 
Q 1013 2425 1300 2715 
Q 1588 3006 2003 3006 
z
" transform="scale(0.015625)"/>
       <path id="DejaVuSans-Oblique-43" d="M 4447 4306 
L 4319 3641 
Q 4019 3944 3683 4091 
Q 3347 4238 2956 4238 
Q 2422 4238 2017 3981 
Q 1613 3725 1319 3200 
Q 1131 2863 1032 2486 
Q 934 2109 934 1728 
Q 934 1091 1264 756 
Q 1594 422 2222 422 
Q 2656 422 3056 561 
Q 3456 700 3834 978 
L 3688 231 
Q 3316 72 2936 -9 
Q 2556 -91 2175 -91 
Q 1278 -91 773 396 
Q 269 884 269 1753 
Q 269 2309 461 2846 
Q 653 3384 1013 3828 
Q 1394 4300 1883 4525 
Q 2372 4750 3022 4750 
Q 3422 4750 3780 4639 
Q 4138 4528 4447 4306 
z
" transform="scale(0.015625)"/>
       <path id="DejaVuSans-Bold-29" d="M 513 -844 
Q 913 -100 1113 609 
Q 1313 1319 1313 2009 
Q 1313 2700 1113 3408 
Q 913 4116 513 4856 
L 1441 4856 
Q 1916 4091 2145 3389 
Q 2375 2688 2375 2003 
Q 2375 1319 2147 623 
Q 1919 -72 1441 -844 
L 513 -844 
z
" transform="scale(0.015625)"/>
      </defs>
      <use xlink:href="#DejaVuSans-Bold-74" transform="translate(0 0.125)"/>
      <use xlink:href="#DejaVuSans-Bold-65" transform="translate(47.802734 0.125)"/>
      <use xlink:href="#DejaVuSans-Bold-6d" transform="translate(115.625 0.125)"/>
      <use xlink:href="#DejaVuSans-Bold-70" transform="translate(219.824219 0.125)"/>
      <use xlink:href="#DejaVuSans-Bold-65" transform="translate(291.40625 0.125)"/>
      <use xlink:href="#DejaVuSans-Bold-72" transform="translate(359.228516 0.125)"/>
      <use xlink:href="#DejaVuSans-Bold-61" transform="translate(408.544922 0.125)"/>
      <use xlink:href="#DejaVuSans-Bold-74" transform="translate(476.025391 0.125)"/>
      <use xlink:href="#DejaVuSans-Bold-75" transform="translate(523.828125 0.125)"/>
      <use xlink:href="#DejaVuSans-Bold-72" transform="translate(595.019531 0.125)"/>
      <use xlink:href="#DejaVuSans-Bold-65" transform="translate(644.335938 0.125)"/>
      <use xlink:href="#DejaVuSans-Bold-28" transform="translate(712.158203 0.125)"/>
      <use xlink:href="#DejaVuSans-2218" transform="translate(772.456055 38.40625)scale(0.7)"/>
      <use xlink:href="#DejaVuSans-Oblique-43" transform="translate(832.646484 0.125)"/>
      <use xlink:href="#DejaVuSans-Bold-20" transform="translate(902.470703 0.125)"/>
      <use xlink:href="#DejaVuSans-Bold-29" transform="translate(937.285156 0.125)"/>
     </g>
    </g>
   </g>
   <g id="patch_3">
    <path d="M 399.625 1040.535714 
L 466.015879 1040.535714 
L 466.015879 1043.49 
L 399.625 1043.49 
z
" clip-path="url(#pdca1734f3e)" style="fill: #00bec5"/>
   </g>
   <g id="patch_4">
    <path d="M 565.602197 1040.535714 
L 631.993076 1040.535714 
L 631.993076 1159.244286 
L 565.602197 1159.244286 
z
" clip-path="url(#pdca1734f3e)" style="fill: #00bec5"/>
   </g>
   <g id="patch_5">
    <path d="M 731.579394 1040.535714 
L 797.970273 1040.535714 
L 797.970273 1185.43 
L 731.579394 1185.43 
z
" clip-path="url(#pdca1734f3e)" style="fill: #00bec5"/>
   </g>
   <g id="patch_6">
    <path d="M 897.556591 1040.535714 
L 963.94747 1040.535714 
L 963.94747 1096.13 
L 897.556591 1096.13 
z
" clip-path="url(#pdca1734f3e)" style="fill: #00bec5"/>
   </g>
   <g id="patch_7">
    <path d="M 1063.533788 1040.535714 
L 1129.924667 1040.535714 
L 1129.924667 1266.807143 
L 1063.533788 1266.807143 
z
" clip-path="url(#pdca1734f3e)" style="fill: #00bec5"/>
   </g>
   <g id="patch_8">
    <path d="M 1229.510985 1040.535714 
L 1295.901864 1040.535714 
L 1295.901864 1172.538571 
L 1229.510985 1172.538571 
z
" clip-path="url(#pdca1734f3e)" style="fill: #00bec5"/>
   </g>
   <g id="patch_9">
    <path d="M 1395.488182 1040.535714 
L 1461.879061 1040.535714 
L 1461.879061 1229.61 
L 1395.488182 1229.61 
z
" clip-path="url(#pdca1734f3e)" style="fill: #00bec5"/>
   </g>
   <g id="patch_10">
    <path d="M 1561.465379 1040.535714 
L 1627.856258 1040.535714 
L 1627.856258 1081.627143 
L 1561.465379 1081.627143 
z
" clip-path="url(#pdca1734f3e)" style="fill: #00bec5"/>
   </g>
   <g id="patch_11">
    <path d="M 1727.442576 1040.535714 
L 1793.833455 1040.535714 
L 1793.833455 1295.544286 
L 1727.442576 1295.544286 
z
" clip-path="url(#pdca1734f3e)" style="fill: #00bec5"/>
   </g>
   <g id="patch_12">
    <path d="M 1893.419773 1040.535714 
L 1959.810652 1040.535714 
L 1959.810652 1268.418571 
L 1893.419773 1268.418571 
z
" clip-path="url(#pdca1734f3e)" style="fill: #00bec5"/>
   </g>
   <g id="patch_13">
    <path d="M 466.015879 1040.535714 
L 532.406758 1040.535714 
L 532.406758 573.49 
L 466.015879 573.49 
z
" clip-path="url(#pdca1734f3e)" style="fill: #f8766d"/>
   </g>
   <g id="patch_14">
    <path d="M 631.993076 1040.535714 
L 698.383955 1040.535714 
L 698.383955 578.19 
L 631.993076 578.19 
z
" clip-path="url(#pdca1734f3e)" style="fill: #f8766d"/>
   </g>
   <g id="patch_15">
    <path d="M 797.970273 1040.535714 
L 864.361152 1040.535714 
L 864.361152 536.964286 
L 797.970273 536.964286 
z
" clip-path="url(#pdca1734f3e)" style="fill: #f8766d"/>
   </g>
   <g id="patch_16">
    <path d="M 963.94747 1040.535714 
L 1030.338349 1040.535714 
L 1030.338349 492.247143 
L 963.94747 492.247143 
z
" clip-path="url(#pdca1734f3e)" style="fill: #f8766d"/>
   </g>
   <g id="patch_17">
    <path d="M 1129.924667 1040.535714 
L 1196.315546 1040.535714 
L 1196.315546 599.407143 
L 1129.924667 599.407143 
z
" clip-path="url(#pdca1734f3e)" style="fill: #f8766d"/>
   </g>
   <g id="patch_18">
    <path d="M 1295.901864 1040.535714 
L 1362.292743 1040.535714 
L 1362.292743 558.047143 
L 1295.901864 558.047143 
z
" clip-path="url(#pdca1734f3e)" style="fill: #f8766d"/>
   </g>
   <g id="patch_19">
    <path d="M 1461.879061 1040.535714 
L 1528.26994 1040.535714 
L 1528.26994 547.841429 
L 1461.879061 547.841429 
z
" clip-path="url(#pdca1734f3e)" style="fill: #f8766d"/>
   </g>
   <g id="patch_20">
    <path d="M 1627.856258 1040.535714 
L 1694.247137 1040.535714 
L 1694.247137 477.878571 
L 1627.856258 477.878571 
z
" clip-path="url(#pdca1734f3e)" style="fill: #f8766d"/>
   </g>
   <g id="patch_21">
    <path d="M 1793.833455 1040.535714 
L 1860.224334 1040.535714 
L 1860.224334 649.227143 
L 1793.833455 649.227143 
z
" clip-path="url(#pdca1734f3e)" style="fill: #f8766d"/>
   </g>
   <g id="patch_22">
    <path d="M 1959.810652 1040.535714 
L 2026.201531 1040.535714 
L 2026.201531 630.695714 
L 1959.810652 630.695714 
z
" clip-path="url(#pdca1734f3e)" style="fill: #f8766d"/>
   </g>
   <g id="text_28">
    <!-- -0.22 -->
    <g style="fill: #ffffff" transform="translate(419.883721 1054.088438)scale(0.1 -0.1)">
     <defs>
      <path id="DejaVuSans-2d" d="M 313 2009 
L 1997 2009 
L 1997 1497 
L 313 1497 
L 313 2009 
z
" transform="scale(0.015625)"/>
      <path id="DejaVuSans-2e" d="M 684 794 
L 1344 794 
L 1344 0 
L 684 0 
L 684 794 
z
" transform="scale(0.015625)"/>
     </defs>
     <use xlink:href="#DejaVuSans-2d"/>
     <use xlink:href="#DejaVuSans-30" x="36.083984"/>
     <use xlink:href="#DejaVuSans-2e" x="99.707031"/>
     <use xlink:href="#DejaVuSans-32" x="131.494141"/>
     <use xlink:href="#DejaVuSans-32" x="195.117188"/>
    </g>
   </g>
   <g id="text_29">
    <!-- -8.84 -->
    <g style="fill: #ffffff" transform="translate(585.860918 1169.842723)scale(0.1 -0.1)">
     <defs>
      <path id="DejaVuSans-38" d="M 2034 2216 
Q 1584 2216 1326 1975 
Q 1069 1734 1069 1313 
Q 1069 891 1326 650 
Q 1584 409 2034 409 
Q 2484 409 2743 651 
Q 3003 894 3003 1313 
Q 3003 1734 2745 1975 
Q 2488 2216 2034 2216 
z
M 1403 2484 
Q 997 2584 770 2862 
Q 544 3141 544 3541 
Q 544 4100 942 4425 
Q 1341 4750 2034 4750 
Q 2731 4750 3128 4425 
Q 3525 4100 3525 3541 
Q 3525 3141 3298 2862 
Q 3072 2584 2669 2484 
Q 3125 2378 3379 2068 
Q 3634 1759 3634 1313 
Q 3634 634 3220 271 
Q 2806 -91 2034 -91 
Q 1263 -91 848 271 
Q 434 634 434 1313 
Q 434 1759 690 2068 
Q 947 2378 1403 2484 
z
M 1172 3481 
Q 1172 3119 1398 2916 
Q 1625 2713 2034 2713 
Q 2441 2713 2670 2916 
Q 2900 3119 2900 3481 
Q 2900 3844 2670 4047 
Q 2441 4250 2034 4250 
Q 1625 4250 1398 4047 
Q 1172 3844 1172 3481 
z
" transform="scale(0.015625)"/>
     </defs>
     <use xlink:href="#DejaVuSans-2d"/>
     <use xlink:href="#DejaVuSans-38" x="36.083984"/>
     <use xlink:href="#DejaVuSans-2e" x="99.707031"/>
     <use xlink:href="#DejaVuSans-38" x="131.494141"/>
     <use xlink:href="#DejaVuSans-34" x="195.117188"/>
    </g>
   </g>
   <g id="text_30">
    <!-- -10.79 -->
    <g style="fill: #ffffff" transform="translate(748.656865 1196.028438)scale(0.1 -0.1)">
     <defs>
      <path id="DejaVuSans-37" d="M 525 4666 
L 3525 4666 
L 3525 4397 
L 1831 0 
L 1172 0 
L 2766 4134 
L 525 4134 
L 525 4666 
z
" transform="scale(0.015625)"/>
      <path id="DejaVuSans-39" d="M 703 97 
L 703 672 
Q 941 559 1184 500 
Q 1428 441 1663 441 
Q 2288 441 2617 861 
Q 2947 1281 2994 2138 
Q 2813 1869 2534 1725 
Q 2256 1581 1919 1581 
Q 1219 1581 811 2004 
Q 403 2428 403 3163 
Q 403 3881 828 4315 
Q 1253 4750 1959 4750 
Q 2769 4750 3195 4129 
Q 3622 3509 3622 2328 
Q 3622 1225 3098 567 
Q 2575 -91 1691 -91 
Q 1453 -91 1209 -44 
Q 966 3 703 97 
z
M 1959 2075 
Q 2384 2075 2632 2365 
Q 2881 2656 2881 3163 
Q 2881 3666 2632 3958 
Q 2384 4250 1959 4250 
Q 1534 4250 1286 3958 
Q 1038 3666 1038 3163 
Q 1038 2656 1286 2365 
Q 1534 2075 1959 2075 
z
" transform="scale(0.015625)"/>
     </defs>
     <use xlink:href="#DejaVuSans-2d"/>
     <use xlink:href="#DejaVuSans-31" x="36.083984"/>
     <use xlink:href="#DejaVuSans-30" x="99.707031"/>
     <use xlink:href="#DejaVuSans-2e" x="163.330078"/>
     <use xlink:href="#DejaVuSans-37" x="195.117188"/>
     <use xlink:href="#DejaVuSans-39" x="258.740234"/>
    </g>
   </g>
   <g id="text_31">
    <!-- -4.14 -->
    <g style="fill: #ffffff" transform="translate(917.815312 1106.728437)scale(0.1 -0.1)">
     <use xlink:href="#DejaVuSans-2d"/>
     <use xlink:href="#DejaVuSans-34" x="36.083984"/>
     <use xlink:href="#DejaVuSans-2e" x="99.707031"/>
     <use xlink:href="#DejaVuSans-31" x="131.494141"/>
     <use xlink:href="#DejaVuSans-34" x="195.117188"/>
    </g>
   </g>
   <g id="text_32">
    <!-- -16.85 -->
    <g style="fill: #ffffff" transform="translate(1080.611259 1277.40558)scale(0.1 -0.1)">
     <defs>
      <path id="DejaVuSans-36" d="M 2113 2584 
Q 1688 2584 1439 2293 
Q 1191 2003 1191 1497 
Q 1191 994 1439 701 
Q 1688 409 2113 409 
Q 2538 409 2786 701 
Q 3034 994 3034 1497 
Q 3034 2003 2786 2293 
Q 2538 2584 2113 2584 
z
M 3366 4563 
L 3366 3988 
Q 3128 4100 2886 4159 
Q 2644 4219 2406 4219 
Q 1781 4219 1451 3797 
Q 1122 3375 1075 2522 
Q 1259 2794 1537 2939 
Q 1816 3084 2150 3084 
Q 2853 3084 3261 2657 
Q 3669 2231 3669 1497 
Q 3669 778 3244 343 
Q 2819 -91 2113 -91 
Q 1303 -91 875 529 
Q 447 1150 447 2328 
Q 447 3434 972 4092 
Q 1497 4750 2381 4750 
Q 2619 4750 2861 4703 
Q 3103 4656 3366 4563 
z
" transform="scale(0.015625)"/>
     </defs>
     <use xlink:href="#DejaVuSans-2d"/>
     <use xlink:href="#DejaVuSans-31" x="36.083984"/>
     <use xlink:href="#DejaVuSans-36" x="99.707031"/>
     <use xlink:href="#DejaVuSans-2e" x="163.330078"/>
     <use xlink:href="#DejaVuSans-38" x="195.117188"/>
     <use xlink:href="#DejaVuSans-35" x="258.740234"/>
    </g>
   </g>
   <g id="text_33">
    <!-- -9.83 -->
    <g style="fill: #ffffff" transform="translate(1249.769706 1183.137009)scale(0.1 -0.1)">
     <use xlink:href="#DejaVuSans-2d"/>
     <use xlink:href="#DejaVuSans-39" x="36.083984"/>
     <use xlink:href="#DejaVuSans-2e" x="99.707031"/>
     <use xlink:href="#DejaVuSans-38" x="131.494141"/>
     <use xlink:href="#DejaVuSans-33" x="195.117188"/>
    </g>
   </g>
   <g id="text_34">
    <!-- -14.08 -->
    <g style="fill: #ffffff" transform="translate(1412.565653 1240.208437)scale(0.1 -0.1)">
     <use xlink:href="#DejaVuSans-2d"/>
     <use xlink:href="#DejaVuSans-31" x="36.083984"/>
     <use xlink:href="#DejaVuSans-34" x="99.707031"/>
     <use xlink:href="#DejaVuSans-2e" x="163.330078"/>
     <use xlink:href="#DejaVuSans-30" x="195.117188"/>
     <use xlink:href="#DejaVuSans-38" x="258.740234"/>
    </g>
   </g>
   <g id="text_35">
    <!-- -3.06 -->
    <g style="fill: #ffffff" transform="translate(1581.7241 1092.22558)scale(0.1 -0.1)">
     <use xlink:href="#DejaVuSans-2d"/>
     <use xlink:href="#DejaVuSans-33" x="36.083984"/>
     <use xlink:href="#DejaVuSans-2e" x="99.707031"/>
     <use xlink:href="#DejaVuSans-30" x="131.494141"/>
     <use xlink:href="#DejaVuSans-36" x="195.117188"/>
    </g>
   </g>
   <g id="text_36">
    <!-- -18.99 -->
    <g style="fill: #ffffff" transform="translate(1744.520047 1306.142723)scale(0.1 -0.1)">
     <use xlink:href="#DejaVuSans-2d"/>
     <use xlink:href="#DejaVuSans-31" x="36.083984"/>
     <use xlink:href="#DejaVuSans-38" x="99.707031"/>
     <use xlink:href="#DejaVuSans-2e" x="163.330078"/>
     <use xlink:href="#DejaVuSans-39" x="195.117188"/>
     <use xlink:href="#DejaVuSans-39" x="258.740234"/>
    </g>
   </g>
   <g id="text_37">
    <!-- -16.97 -->
    <g style="fill: #ffffff" transform="translate(1910.497244 1279.017009)scale(0.1 -0.1)">
     <use xlink:href="#DejaVuSans-2d"/>
     <use xlink:href="#DejaVuSans-31" x="36.083984"/>
     <use xlink:href="#DejaVuSans-36" x="99.707031"/>
     <use xlink:href="#DejaVuSans-2e" x="163.330078"/>
     <use xlink:href="#DejaVuSans-39" x="195.117188"/>
     <use xlink:href="#DejaVuSans-37" x="258.740234"/>
    </g>
   </g>
   <g id="text_38">
    <!-- 34.78 -->
    <g style="fill: #ffffff" transform="translate(484.897256 568.410312)scale(0.1 -0.1)">
     <use xlink:href="#DejaVuSans-33"/>
     <use xlink:href="#DejaVuSans-34" x="63.623047"/>
     <use xlink:href="#DejaVuSans-2e" x="127.246094"/>
     <use xlink:href="#DejaVuSans-37" x="159.033203"/>
     <use xlink:href="#DejaVuSans-38" x="222.65625"/>
    </g>
   </g>
   <g id="text_39">
    <!-- 34.43 -->
    <g style="fill: #ffffff" transform="translate(650.874453 573.110312)scale(0.1 -0.1)">
     <use xlink:href="#DejaVuSans-33"/>
     <use xlink:href="#DejaVuSans-34" x="63.623047"/>
     <use xlink:href="#DejaVuSans-2e" x="127.246094"/>
     <use xlink:href="#DejaVuSans-34" x="159.033203"/>
     <use xlink:href="#DejaVuSans-33" x="222.65625"/>
    </g>
   </g>
   <g id="text_40">
    <!-- 37.5 -->
    <g style="fill: #ffffff" transform="translate(820.0329 531.884598)scale(0.1 -0.1)">
     <use xlink:href="#DejaVuSans-33"/>
     <use xlink:href="#DejaVuSans-37" x="63.623047"/>
     <use xlink:href="#DejaVuSans-2e" x="127.246094"/>
     <use xlink:href="#DejaVuSans-35" x="159.033203"/>
    </g>
   </g>
   <g id="text_41">
    <!-- 40.83 -->
    <g style="fill: #ffffff" transform="translate(982.828847 487.167455)scale(0.1 -0.1)">
     <use xlink:href="#DejaVuSans-34"/>
     <use xlink:href="#DejaVuSans-30" x="63.623047"/>
     <use xlink:href="#DejaVuSans-2e" x="127.246094"/>
     <use xlink:href="#DejaVuSans-38" x="159.033203"/>
     <use xlink:href="#DejaVuSans-33" x="222.65625"/>
    </g>
   </g>
   <g id="text_42">
    <!-- 32.85 -->
    <g style="fill: #ffffff" transform="translate(1148.806044 594.327455)scale(0.1 -0.1)">
     <use xlink:href="#DejaVuSans-33"/>
     <use xlink:href="#DejaVuSans-32" x="63.623047"/>
     <use xlink:href="#DejaVuSans-2e" x="127.246094"/>
     <use xlink:href="#DejaVuSans-38" x="159.033203"/>
     <use xlink:href="#DejaVuSans-35" x="222.65625"/>
    </g>
   </g>
   <g id="text_43">
    <!-- 35.93 -->
    <g style="fill: #ffffff" transform="translate(1314.783241 552.967455)scale(0.1 -0.1)">
     <use xlink:href="#DejaVuSans-33"/>
     <use xlink:href="#DejaVuSans-35" x="63.623047"/>
     <use xlink:href="#DejaVuSans-2e" x="127.246094"/>
     <use xlink:href="#DejaVuSans-39" x="159.033203"/>
     <use xlink:href="#DejaVuSans-33" x="222.65625"/>
    </g>
   </g>
   <g id="text_44">
    <!-- 36.69 -->
    <g style="fill: #ffffff" transform="translate(1480.760438 542.761741)scale(0.1 -0.1)">
     <use xlink:href="#DejaVuSans-33"/>
     <use xlink:href="#DejaVuSans-36" x="63.623047"/>
     <use xlink:href="#DejaVuSans-2e" x="127.246094"/>
     <use xlink:href="#DejaVuSans-36" x="159.033203"/>
     <use xlink:href="#DejaVuSans-39" x="222.65625"/>
    </g>
   </g>
   <g id="text_45">
    <!-- 41.9 -->
    <g style="fill: #ffffff" transform="translate(1649.918885 472.798884)scale(0.1 -0.1)">
     <use xlink:href="#DejaVuSans-34"/>
     <use xlink:href="#DejaVuSans-31" x="63.623047"/>
     <use xlink:href="#DejaVuSans-2e" x="127.246094"/>
     <use xlink:href="#DejaVuSans-39" x="159.033203"/>
    </g>
   </g>
   <g id="text_46">
    <!-- 29.14 -->
    <g style="fill: #ffffff" transform="translate(1812.714832 644.147455)scale(0.1 -0.1)">
     <use xlink:href="#DejaVuSans-32"/>
     <use xlink:href="#DejaVuSans-39" x="63.623047"/>
     <use xlink:href="#DejaVuSans-2e" x="127.246094"/>
     <use xlink:href="#DejaVuSans-31" x="159.033203"/>
     <use xlink:href="#DejaVuSans-34" x="222.65625"/>
    </g>
   </g>
   <g id="text_47">
    <!-- 30.52 -->
    <g style="fill: #ffffff" transform="translate(1978.692029 625.616027)scale(0.1 -0.1)">
     <use xlink:href="#DejaVuSans-33"/>
     <use xlink:href="#DejaVuSans-30" x="63.623047"/>
     <use xlink:href="#DejaVuSans-2e" x="127.246094"/>
     <use xlink:href="#DejaVuSans-35" x="159.033203"/>
     <use xlink:href="#DejaVuSans-32" x="222.65625"/>
    </g>
   </g>
   <g id="text_48">
    <!-- Maximum and Minimum temperature for Kurdish cities between 1980-2020 -->
    <g style="fill: #faffa2" transform="translate(682.038265 396.25)scale(0.25 -0.25)">
     <defs>
      <path id="DejaVuSans-Bold-4d" d="M 588 4666 
L 2119 4666 
L 3181 2169 
L 4250 4666 
L 5778 4666 
L 5778 0 
L 4641 0 
L 4641 3413 
L 3566 897 
L 2803 897 
L 1728 3413 
L 1728 0 
L 588 0 
L 588 4666 
z
" transform="scale(0.015625)"/>
      <path id="DejaVuSans-Bold-78" d="M 1422 1791 
L 159 3500 
L 1344 3500 
L 2059 2463 
L 2784 3500 
L 3969 3500 
L 2706 1797 
L 4031 0 
L 2847 0 
L 2059 1106 
L 1281 0 
L 97 0 
L 1422 1791 
z
" transform="scale(0.015625)"/>
      <path id="DejaVuSans-Bold-6e" d="M 4056 2131 
L 4056 0 
L 2931 0 
L 2931 347 
L 2931 1631 
Q 2931 2084 2911 2256 
Q 2891 2428 2841 2509 
Q 2775 2619 2662 2680 
Q 2550 2741 2406 2741 
Q 2056 2741 1856 2470 
Q 1656 2200 1656 1722 
L 1656 0 
L 538 0 
L 538 3500 
L 1656 3500 
L 1656 2988 
Q 1909 3294 2193 3439 
Q 2478 3584 2822 3584 
Q 3428 3584 3742 3212 
Q 4056 2841 4056 2131 
z
" transform="scale(0.015625)"/>
      <path id="DejaVuSans-Bold-66" d="M 2841 4863 
L 2841 4128 
L 2222 4128 
Q 1984 4128 1890 4042 
Q 1797 3956 1797 3744 
L 1797 3500 
L 2753 3500 
L 2753 2700 
L 1797 2700 
L 1797 0 
L 678 0 
L 678 2700 
L 122 2700 
L 122 3500 
L 678 3500 
L 678 3744 
Q 678 4316 997 4589 
Q 1316 4863 1984 4863 
L 2841 4863 
z
" transform="scale(0.015625)"/>
      <path id="DejaVuSans-Bold-6f" d="M 2203 2784 
Q 1831 2784 1636 2517 
Q 1441 2250 1441 1747 
Q 1441 1244 1636 976 
Q 1831 709 2203 709 
Q 2569 709 2762 976 
Q 2956 1244 2956 1747 
Q 2956 2250 2762 2517 
Q 2569 2784 2203 2784 
z
M 2203 3584 
Q 3106 3584 3614 3096 
Q 4122 2609 4122 1747 
Q 4122 884 3614 396 
Q 3106 -91 2203 -91 
Q 1297 -91 786 396 
Q 275 884 275 1747 
Q 275 2609 786 3096 
Q 1297 3584 2203 3584 
z
" transform="scale(0.015625)"/>
      <path id="DejaVuSans-Bold-63" d="M 3366 3391 
L 3366 2478 
Q 3138 2634 2908 2709 
Q 2678 2784 2431 2784 
Q 1963 2784 1702 2511 
Q 1441 2238 1441 1747 
Q 1441 1256 1702 982 
Q 1963 709 2431 709 
Q 2694 709 2930 787 
Q 3166 866 3366 1019 
L 3366 103 
Q 3103 6 2833 -42 
Q 2563 -91 2291 -91 
Q 1344 -91 809 395 
Q 275 881 275 1747 
Q 275 2613 809 3098 
Q 1344 3584 2291 3584 
Q 2566 3584 2833 3536 
Q 3100 3488 3366 3391 
z
" transform="scale(0.015625)"/>
      <path id="DejaVuSans-Bold-62" d="M 2400 722 
Q 2759 722 2948 984 
Q 3138 1247 3138 1747 
Q 3138 2247 2948 2509 
Q 2759 2772 2400 2772 
Q 2041 2772 1848 2508 
Q 1656 2244 1656 1747 
Q 1656 1250 1848 986 
Q 2041 722 2400 722 
z
M 1656 2988 
Q 1888 3294 2169 3439 
Q 2450 3584 2816 3584 
Q 3463 3584 3878 3070 
Q 4294 2556 4294 1747 
Q 4294 938 3878 423 
Q 3463 -91 2816 -91 
Q 2450 -91 2169 54 
Q 1888 200 1656 506 
L 1656 0 
L 538 0 
L 538 4863 
L 1656 4863 
L 1656 2988 
z
" transform="scale(0.015625)"/>
      <path id="DejaVuSans-Bold-77" d="M 225 3500 
L 1313 3500 
L 1900 1088 
L 2491 3500 
L 3425 3500 
L 4013 1113 
L 4603 3500 
L 5691 3500 
L 4769 0 
L 3547 0 
L 2956 2406 
L 2369 0 
L 1147 0 
L 225 3500 
z
" transform="scale(0.015625)"/>
      <path id="DejaVuSans-Bold-31" d="M 750 831 
L 1813 831 
L 1813 3847 
L 722 3622 
L 722 4441 
L 1806 4666 
L 2950 4666 
L 2950 831 
L 4013 831 
L 4013 0 
L 750 0 
L 750 831 
z
" transform="scale(0.015625)"/>
      <path id="DejaVuSans-Bold-39" d="M 641 103 
L 641 966 
Q 928 831 1190 764 
Q 1453 697 1709 697 
Q 2247 697 2547 995 
Q 2847 1294 2900 1881 
Q 2688 1725 2447 1647 
Q 2206 1569 1925 1569 
Q 1209 1569 770 1986 
Q 331 2403 331 3084 
Q 331 3838 820 4291 
Q 1309 4744 2131 4744 
Q 3044 4744 3544 4128 
Q 4044 3513 4044 2388 
Q 4044 1231 3459 570 
Q 2875 -91 1856 -91 
Q 1528 -91 1228 -42 
Q 928 6 641 103 
z
M 2125 2350 
Q 2441 2350 2600 2554 
Q 2759 2759 2759 3169 
Q 2759 3575 2600 3781 
Q 2441 3988 2125 3988 
Q 1809 3988 1650 3781 
Q 1491 3575 1491 3169 
Q 1491 2759 1650 2554 
Q 1809 2350 2125 2350 
z
" transform="scale(0.015625)"/>
      <path id="DejaVuSans-Bold-38" d="M 2228 2088 
Q 1891 2088 1709 1903 
Q 1528 1719 1528 1375 
Q 1528 1031 1709 848 
Q 1891 666 2228 666 
Q 2563 666 2741 848 
Q 2919 1031 2919 1375 
Q 2919 1722 2741 1905 
Q 2563 2088 2228 2088 
z
M 1350 2484 
Q 925 2613 709 2878 
Q 494 3144 494 3541 
Q 494 4131 934 4440 
Q 1375 4750 2228 4750 
Q 3075 4750 3515 4442 
Q 3956 4134 3956 3541 
Q 3956 3144 3739 2878 
Q 3522 2613 3097 2484 
Q 3572 2353 3814 2058 
Q 4056 1763 4056 1313 
Q 4056 619 3595 264 
Q 3134 -91 2228 -91 
Q 1319 -91 855 264 
Q 391 619 391 1313 
Q 391 1763 633 2058 
Q 875 2353 1350 2484 
z
M 1631 3419 
Q 1631 3141 1786 2991 
Q 1941 2841 2228 2841 
Q 2509 2841 2662 2991 
Q 2816 3141 2816 3419 
Q 2816 3697 2662 3845 
Q 2509 3994 2228 3994 
Q 1941 3994 1786 3844 
Q 1631 3694 1631 3419 
z
" transform="scale(0.015625)"/>
      <path id="DejaVuSans-Bold-30" d="M 2944 2338 
Q 2944 3213 2780 3570 
Q 2616 3928 2228 3928 
Q 1841 3928 1675 3570 
Q 1509 3213 1509 2338 
Q 1509 1453 1675 1090 
Q 1841 728 2228 728 
Q 2613 728 2778 1090 
Q 2944 1453 2944 2338 
z
M 4147 2328 
Q 4147 1169 3647 539 
Q 3147 -91 2228 -91 
Q 1306 -91 806 539 
Q 306 1169 306 2328 
Q 306 3491 806 4120 
Q 1306 4750 2228 4750 
Q 3147 4750 3647 4120 
Q 4147 3491 4147 2328 
z
" transform="scale(0.015625)"/>
      <path id="DejaVuSans-Bold-2d" d="M 347 2297 
L 2309 2297 
L 2309 1388 
L 347 1388 
L 347 2297 
z
" transform="scale(0.015625)"/>
      <path id="DejaVuSans-Bold-32" d="M 1844 884 
L 3897 884 
L 3897 0 
L 506 0 
L 506 884 
L 2209 2388 
Q 2438 2594 2547 2791 
Q 2656 2988 2656 3200 
Q 2656 3528 2436 3728 
Q 2216 3928 1850 3928 
Q 1569 3928 1234 3808 
Q 900 3688 519 3450 
L 519 4475 
Q 925 4609 1322 4679 
Q 1719 4750 2100 4750 
Q 2938 4750 3402 4381 
Q 3866 4013 3866 3353 
Q 3866 2972 3669 2642 
Q 3472 2313 2841 1759 
L 1844 884 
z
" transform="scale(0.015625)"/>
     </defs>
     <use xlink:href="#DejaVuSans-Bold-4d"/>
     <use xlink:href="#DejaVuSans-Bold-61" x="99.511719"/>
     <use xlink:href="#DejaVuSans-Bold-78" x="166.992188"/>
     <use xlink:href="#DejaVuSans-Bold-69" x="231.494141"/>
     <use xlink:href="#DejaVuSans-Bold-6d" x="265.771484"/>
     <use xlink:href="#DejaVuSans-Bold-75" x="369.970703"/>
     <use xlink:href="#DejaVuSans-Bold-6d" x="441.162109"/>
     <use xlink:href="#DejaVuSans-Bold-20" x="545.361328"/>
     <use xlink:href="#DejaVuSans-Bold-61" x="580.175781"/>
     <use xlink:href="#DejaVuSans-Bold-6e" x="647.65625"/>
     <use xlink:href="#DejaVuSans-Bold-64" x="718.847656"/>
     <use xlink:href="#DejaVuSans-Bold-20" x="790.429688"/>
     <use xlink:href="#DejaVuSans-Bold-4d" x="825.244141"/>
     <use xlink:href="#DejaVuSans-Bold-69" x="924.755859"/>
     <use xlink:href="#DejaVuSans-Bold-6e" x="959.033203"/>
     <use xlink:href="#DejaVuSans-Bold-69" x="1030.224609"/>
     <use xlink:href="#DejaVuSans-Bold-6d" x="1064.501953"/>
     <use xlink:href="#DejaVuSans-Bold-75" x="1168.701172"/>
     <use xlink:href="#DejaVuSans-Bold-6d" x="1239.892578"/>
     <use xlink:href="#DejaVuSans-Bold-20" x="1344.091797"/>
     <use xlink:href="#DejaVuSans-Bold-74" x="1378.90625"/>
     <use xlink:href="#DejaVuSans-Bold-65" x="1426.708984"/>
     <use xlink:href="#DejaVuSans-Bold-6d" x="1494.53125"/>
     <use xlink:href="#DejaVuSans-Bold-70" x="1598.730469"/>
     <use xlink:href="#DejaVuSans-Bold-65" x="1670.3125"/>
     <use xlink:href="#DejaVuSans-Bold-72" x="1738.134766"/>
     <use xlink:href="#DejaVuSans-Bold-61" x="1787.451172"/>
     <use xlink:href="#DejaVuSans-Bold-74" x="1854.931641"/>
     <use xlink:href="#DejaVuSans-Bold-75" x="1902.734375"/>
     <use xlink:href="#DejaVuSans-Bold-72" x="1973.925781"/>
     <use xlink:href="#DejaVuSans-Bold-65" x="2023.242188"/>
     <use xlink:href="#DejaVuSans-Bold-20" x="2091.064453"/>
     <use xlink:href="#DejaVuSans-Bold-66" x="2125.878906"/>
     <use xlink:href="#DejaVuSans-Bold-6f" x="2169.384766"/>
     <use xlink:href="#DejaVuSans-Bold-72" x="2238.085938"/>
     <use xlink:href="#DejaVuSans-Bold-20" x="2287.402344"/>
     <use xlink:href="#DejaVuSans-Bold-4b" x="2322.216797"/>
     <use xlink:href="#DejaVuSans-Bold-75" x="2397.957031"/>
     <use xlink:href="#DejaVuSans-Bold-72" x="2469.148438"/>
     <use xlink:href="#DejaVuSans-Bold-64" x="2518.464844"/>
     <use xlink:href="#DejaVuSans-Bold-69" x="2590.046875"/>
     <use xlink:href="#DejaVuSans-Bold-73" x="2624.324219"/>
     <use xlink:href="#DejaVuSans-Bold-68" x="2683.845703"/>
     <use xlink:href="#DejaVuSans-Bold-20" x="2755.037109"/>
     <use xlink:href="#DejaVuSans-Bold-63" x="2789.851562"/>
     <use xlink:href="#DejaVuSans-Bold-69" x="2849.128906"/>
     <use xlink:href="#DejaVuSans-Bold-74" x="2883.40625"/>
     <use xlink:href="#DejaVuSans-Bold-69" x="2931.208984"/>
     <use xlink:href="#DejaVuSans-Bold-65" x="2965.486328"/>
     <use xlink:href="#DejaVuSans-Bold-73" x="3033.308594"/>
     <use xlink:href="#DejaVuSans-Bold-20" x="3092.830078"/>
     <use xlink:href="#DejaVuSans-Bold-62" x="3127.644531"/>
     <use xlink:href="#DejaVuSans-Bold-65" x="3199.226562"/>
     <use xlink:href="#DejaVuSans-Bold-74" x="3267.048828"/>
     <use xlink:href="#DejaVuSans-Bold-77" x="3314.851562"/>
     <use xlink:href="#DejaVuSans-Bold-65" x="3407.234375"/>
     <use xlink:href="#DejaVuSans-Bold-65" x="3475.056641"/>
     <use xlink:href="#DejaVuSans-Bold-6e" x="3542.878906"/>
     <use xlink:href="#DejaVuSans-Bold-20" x="3614.070312"/>
     <use xlink:href="#DejaVuSans-Bold-31" x="3648.884766"/>
     <use xlink:href="#DejaVuSans-Bold-39" x="3718.464844"/>
     <use xlink:href="#DejaVuSans-Bold-38" x="3788.044922"/>
     <use xlink:href="#DejaVuSans-Bold-30" x="3857.625"/>
     <use xlink:href="#DejaVuSans-Bold-2d" x="3927.205078"/>
     <use xlink:href="#DejaVuSans-Bold-32" x="3968.708984"/>
     <use xlink:href="#DejaVuSans-Bold-30" x="4038.289062"/>
     <use xlink:href="#DejaVuSans-Bold-32" x="4107.869141"/>
     <use xlink:href="#DejaVuSans-Bold-30" x="4177.449219"/>
    </g>
   </g>
   <g id="legend_1">
    <g id="patch_23">
     <path d="M 1893.793718 492.284375 
L 2015.701531 492.284375 
Q 2018.701531 492.284375 2018.701531 489.284375 
L 2018.701531 446.75 
Q 2018.701531 443.75 2015.701531 443.75 
L 1893.793718 443.75 
Q 1890.793718 443.75 1890.793718 446.75 
L 1890.793718 489.284375 
Q 1890.793718 492.284375 1893.793718 492.284375 
z
" style="fill: #ffffff; stroke: #cccccc; stroke-linejoin: miter"/>
    </g>
    <g id="patch_24">
     <path d="M 1896.793718 461.147656 
L 1926.793718 461.147656 
L 1926.793718 450.647656 
L 1896.793718 450.647656 
z
" style="fill: #00bec5"/>
    </g>
    <g id="text_49">
     <!-- Minimum -->
     <g style="fill: #6272a4" transform="translate(1938.793718 461.147656)scale(0.15 -0.15)">
      <defs>
       <path id="DejaVuSans-4d" d="M 628 4666 
L 1569 4666 
L 2759 1491 
L 3956 4666 
L 4897 4666 
L 4897 0 
L 4281 0 
L 4281 4097 
L 3078 897 
L 2444 897 
L 1241 4097 
L 1241 0 
L 628 0 
L 628 4666 
z
" transform="scale(0.015625)"/>
      </defs>
      <use xlink:href="#DejaVuSans-4d"/>
      <use xlink:href="#DejaVuSans-69" x="86.279297"/>
      <use xlink:href="#DejaVuSans-6e" x="114.0625"/>
      <use xlink:href="#DejaVuSans-69" x="177.441406"/>
      <use xlink:href="#DejaVuSans-6d" x="205.224609"/>
      <use xlink:href="#DejaVuSans-75" x="302.636719"/>
      <use xlink:href="#DejaVuSans-6d" x="366.015625"/>
     </g>
    </g>
    <g id="patch_25">
     <path d="M 1896.793718 483.164844 
L 1926.793718 483.164844 
L 1926.793718 472.664844 
L 1896.793718 472.664844 
z
" style="fill: #f8766d"/>
    </g>
    <g id="text_50">
     <!-- Maximum -->
     <g style="fill: #6272a4" transform="translate(1938.793718 483.164844)scale(0.15 -0.15)">
      <defs>
       <path id="DejaVuSans-78" d="M 3513 3500 
L 2247 1797 
L 3578 0 
L 2900 0 
L 1881 1375 
L 863 0 
L 184 0 
L 1544 1831 
L 300 3500 
L 978 3500 
L 1906 2253 
L 2834 3500 
L 3513 3500 
z
" transform="scale(0.015625)"/>
      </defs>
      <use xlink:href="#DejaVuSans-4d"/>
      <use xlink:href="#DejaVuSans-61" x="86.279297"/>
      <use xlink:href="#DejaVuSans-78" x="147.558594"/>
      <use xlink:href="#DejaVuSans-69" x="206.738281"/>
      <use xlink:href="#DejaVuSans-6d" x="234.521484"/>
      <use xlink:href="#DejaVuSans-75" x="331.933594"/>
      <use xlink:href="#DejaVuSans-6d" x="395.3125"/>
     </g>
    </g>
   </g>
  </g>
 </g>
 <defs>
  <clipPath id="pdca1734f3e">
   <rect x="399.625" y="436.25" width="1626.576531" height="940"/>
  </clipPath>
 </defs>
</svg>
